<?xml version="1.0" encoding="utf-8"?>
<!-- Generator: Adobe Illustrator 22.0.1, SVG Export Plug-In . SVG Version: 6.00 Build 0)  -->
<svg version="1.1" id="Laag_1" xmlns="http://www.w3.org/2000/svg" xmlns:xlink="http://www.w3.org/1999/xlink" x="0px" y="0px"
	 viewBox="0 0 242.2 207.8" style="enable-background:new 0 0 242.2 207.8;" xml:space="preserve">
<style type="text/css">
	.st0{fill:#25DEC8;}
	.st1{fill:#1CAFAC;}
</style>
<g>
	<polygon class="st0" points="213.3,103.8 213.3,164.6 221.3,151.3 229.3,157.6 229.3,94.7 	"/>
	<g>
		<polygon class="st0" points="125.8,0 125.8,40.4 234.2,61.7 		"/>
		<polygon class="st0" points="241.5,73.6 125.8,50.9 125.8,139.5 		"/>
		<polygon class="st1" points="115.5,139.3 115.5,50.9 0,73.6 		"/>
		<polygon points="248.2,69.8 248.3,69.7 248.2,69.7 		"/>
		<polygon class="st1" points="7.4,61.7 115.5,40.4 115.5,0.1 		"/>
		<polygon points="120.7,142.3 120.8,142.3 120.9,142.3 		"/>
	</g>
	<path class="st0" d="M127.1,151.2l-6.3,3.6l-6.3-3.6l-75.1-42.8v52l81.4,46.4l81.4-46.4v-52L127.1,151.2z M91.1,174.9l-22.3-12.7
		v-21.8l22.3,12.7V174.9z M172.6,162.3L150.2,175v-21.8l22.3-12.7V162.3z"/>
	<path class="st1" d="M39.3,108.5v52l81.3,46.3v-52l-6.2-3.5L39.3,108.5z M91.1,174.9l-22.3-12.7v-21.8l22.3,12.7V174.9z"/>
</g>
</svg>
