<?xml version="1.0" encoding="utf-8"?>
<!-- Generator: Adobe Illustrator 22.0.1, SVG Export Plug-In . SVG Version: 6.00 Build 0)  -->
<svg version="1.1" id="Laag_1" xmlns="http://www.w3.org/2000/svg" xmlns:xlink="http://www.w3.org/1999/xlink" x="0px" y="0px"
	 viewBox="0 0 56.9 62" style="enable-background:new 0 0 56.9 62;" xml:space="preserve">
<style type="text/css">
	.st0{fill:#343A40;}
</style>
<g>
	<path class="st0" d="M44.6,44.9c4.1,4.1,8.2,8.2,12.3,12.3c-1.6,1.6-3.1,3.1-4.6,4.6c-4.3-4.3-8.6-8.6-12.9-12.9
		c-13.1,7.4-28.6,2.6-35.7-9.2c-6.8-11.3-4-26.2,6.4-34.2c10.7-8.2,25.6-7.2,35,2.5C54.7,18,55.3,34.3,44.6,44.9z M26.2,6.5
		c-10.7,0-19.7,8.8-19.7,19.5c0,11,8.6,19.8,19.6,19.8C37,46,45.9,37.2,45.9,26.3C45.9,15.4,37.1,6.6,26.2,6.5z"/>
</g>
</svg>
