<?xml version="1.0" encoding="utf-8"?>
<!-- Generator: Adobe Illustrator 22.0.1, SVG Export Plug-In . SVG Version: 6.00 Build 0)  -->
<svg version="1.1" id="Laag_1" xmlns="http://www.w3.org/2000/svg" xmlns:xlink="http://www.w3.org/1999/xlink" x="0px" y="0px"
	 viewBox="0 0 300 300" style="enable-background:new 0 0 300 300;" xml:space="preserve">
<style type="text/css">
	.st0{fill:#343A40;}
</style>
<path class="st0" d="M292.4,121.9L150,0.4L7.6,121.9c-6.1,5.2-2,14.4,6.4,14.4h0.6v146.4c0,9.4,7.6,16.9,16.9,16.9h236.9
	c9.4,0,16.9-7.6,16.9-16.9V136.3h0.6C294.4,136.3,298.5,127.1,292.4,121.9z M97.3,94.3c10.9-0.2,19.8,8.7,20,19.7
	c0.1,10.6-8.7,19.5-19.5,19.7c-10.8,0.1-19.8-8.6-19.9-19.3C77.7,103.4,86.3,94.5,97.3,94.3z M71.7,180.3c-0.7,3-1.5,6-2.2,9.1
	c-3-0.9-4.6-2.9-4.7-5.8c0-2.3,0-4.7,0-7.2c-3-1-5.9-2.3-8.9-3.1c-5.1-1.3-6.8-7.2-2.7-11.1c3.7-3.5,7.1-7.2,10.6-10.9
	c0.6-0.6,0.9-1.6,1-2.4c0.2-1.4,0-2.8,0.1-4.2c0.1-3,2.3-5.5,5.3-5.6c3.7-0.2,7.4,0,11.4,0c-0.1,0.5-0.1,1-0.2,1.4
	c-2.2,8.9-4.3,17.8-6.4,26.7c-0.2,0.8-0.5,1.3-1.4,1.6c-4.7,1.5-5.9,6.6-2.4,10C71.4,179.3,71.8,179.9,71.7,180.3z M95.3,259.7
	c0,6.3-5.4,10.5-11.2,8.8c-3.7-1.1-6.2-4.4-6.3-8.5c0-7.1,0-14.1,0-21.2c0-11.2,0-22.4,0-33.5c0-0.6,0-1.2,0-2c5.9,0,11.6,0,17.3,0
	c0.1,0.5,0.2,0.9,0.2,1.3C95.3,223,95.4,241.4,95.3,259.7z M117.2,259.9c0,4.5-2.7,7.9-6.9,8.8c-5.1,1.2-10.1-2.5-10.5-7.8
	c0-0.6-0.1-1.1-0.1-1.7c0-18,0-36,0-54.1c0-0.5,0-1.1,0-1.8c6,0,11.7,0,17.4,0c0,0.5,0.1,0.9,0.1,1.3
	C117.2,223.1,117.2,241.5,117.2,259.9z M121.6,197.7c0,0.3,0,0.6-0.1,1.1c-16.1,0-32,0-48,0c0.1-3.9-0.5-7.8,0.7-11.6
	c0.4-1.1,0.6-2.2,0.9-3.4c0.4-1.9,0.9-3.4,3-4.4c3.2-1.5,3.7-5.9,1.2-8.6c-0.7-0.8-0.8-1.4-0.5-2.3c2.4-9.8,4.7-19.5,7.1-29.3
	c0.2-1,0.8-1.5,1.7-1.7c6.7-2,13.3-2,20,0c0.9,0.3,1.4,0.7,1.6,1.7c2.3,9.9,4.7,19.8,7.1,29.7c0.1,0.6-0.1,1.4-0.4,1.8
	c-2.8,3.3-1.8,7.8,2.2,9.5c0.6,0.2,1.2,0.8,1.4,1.4C120.8,186.7,122.1,192.1,121.6,197.7z M139.5,173.3c-2.2,0.8-4.4,1.5-6.6,2.4
	c-0.5,0.2-1,1-1.1,1.5c-0.1,2.1,0,4.1-0.1,6.2c-0.1,3.9-2.2,6-6.2,6.3c-0.8-3.1-1.6-6.3-2.3-9.5c-0.1-0.3,0.3-0.9,0.6-1.2
	c3.5-3.5,2.3-8.5-2.4-10.1c-0.5-0.2-1.2-0.7-1.3-1.2c-2.3-9.2-4.5-18.3-6.7-27.5c-0.1-0.3,0-0.5-0.1-0.9c4.6,0,9.1-0.2,13.5,0.1
	c2.3,0.1,4.3,2.3,4.5,4.7c0.2,2.3,0.1,4.6,0.3,6.8c0.1,0.7,0.4,1.6,0.9,2.2c3,3.2,6.2,6.4,9.3,9.6
	C145.8,166.5,144.6,171.5,139.5,173.3z M169.9,100.4c0.7,1.1,1.3,2.4,2.2,3.4c1.8,2.1,3.8,2.5,6.5,1.5c2.5-0.9,3.8-2.8,3.8-5.3
	c0-1.6-0.4-3.3-0.7-4.9c-1.5-7.4,1.3-12.1,8.5-14.3c4-1.2,7.9-1.5,11.6,0.7c3,1.9,4.9,5.9,4.2,9.4c-5.9-0.6-11.3-0.2-14.2,6.4
	c4.9-2.7,9.8-3.8,15.1-2.6c5.3,1.2,9.4,4.1,12.4,8.7c4.6,7.1,3.9,16.6-1.5,23.1c-5.5,6.7-14.7,8.9-22.9,5.6
	c-8.5-3.5-12.5-11.3-11.6-22.9c-5,2.2-8.9,1.6-11.8-1.7C169.3,105.3,168.7,102.3,169.9,100.4z M169.7,176.5
	c-3.2-1.1-6.4-2.2-9.5-3.3c-4.8-1.7-6-6.7-2.5-10.4c3.7-3.8,7.4-7.6,11-11.4c0.5-0.5,0.8-1.4,0.9-2.2c0.1-1.5,0-3,0.1-4.5
	c0.1-2.6,2.1-5.2,4.6-5.4c4-0.3,8-0.1,12.2-0.1c-0.9,3.6-1.7,7.1-2.5,10.6c-1.4,5.8-2.8,11.5-4.2,17.3c-0.2,0.9-0.5,1.5-1.6,1.8
	c-4.4,1.4-5.7,6.7-2.3,9.9c0.7,0.7,0.8,1.1,0.6,2c-0.8,2.8-1.4,5.7-2.1,8.5c-2.9-0.8-4.5-2.8-4.6-5.7
	C169.6,181.3,169.7,178.9,169.7,176.5z M200.2,259.7c0,4.6-2.6,7.9-6.7,8.9c-5.1,1.2-10.5-2.3-10.6-7.6c-0.2-10.9-0.1-21.9-0.1-33
	c5.9,0,11.6,0,17.4,0c0,0.6,0.1,1.1,0.1,1.6C200.2,239.7,200.2,249.7,200.2,259.7z M222.1,259.9c0,6.1-5.5,10.3-11.3,8.6
	c-3.7-1.1-6.2-4.3-6.2-8.5c-0.1-3.9,0-7.9,0-11.8c0-6.1,0-12.1,0-18.2c0-0.6,0-1.2,0-1.9c5.9,0,11.6,0,17.4,0c0,0.4,0.1,0.8,0.1,1.1
	C222.1,239.5,222.1,249.7,222.1,259.9z M170.2,223.5c0.7-3.1,1.4-6.1,2.2-9.1c2.6-10.9,5.3-21.7,7.9-32.6c0.2-0.9,0.5-1.4,1.5-1.7
	c4-1.5,5.2-6.2,2.3-9.4c-0.6-0.7-0.8-1.3-0.5-2.2c2.4-9.8,4.8-19.5,7.1-29.3c0.2-1,0.7-1.5,1.7-1.8c6.7-2,13.4-2,20,0
	c1,0.3,1.4,0.8,1.6,1.8c2.3,9.7,4.7,19.4,7.1,29.2c0.2,1,0.2,1.6-0.5,2.3c-2.8,3.1-1.6,7.9,2.3,9.5c0.6,0.2,1.3,0.9,1.4,1.5
	c3.4,13.6,6.7,27.3,10,41c0.1,0.2,0.1,0.4,0.1,0.9C213,223.5,191.7,223.5,170.2,223.5z M244.5,173.2c-2.1,0.8-4.3,1.5-6.5,2.2
	c-1,0.3-1.4,0.8-1.3,1.9c0.1,1.9,0.1,3.9,0,5.8c-0.1,4-2,6-6.1,6.5c-0.8-3.2-1.6-6.3-2.3-9.5c-0.1-0.3,0.3-0.9,0.6-1.2
	c3.5-3.6,2.3-8.5-2.5-10.2c-0.4-0.1-1-0.6-1.1-1c-2.3-9.3-4.5-18.6-6.8-27.8c0-0.2,0-0.4,0-0.7c4.5,0,9-0.1,13.4,0.1
	c2.4,0.1,4.4,2.3,4.7,4.8c0.2,2.2,0.1,4.4,0.3,6.7c0.1,0.8,0.4,1.7,0.9,2.3c3,3.3,6.2,6.4,9.3,9.6
	C250.6,166.5,249.5,171.5,244.5,173.2z"/>
</svg>
